<svg xmlns="http://www.w3.org/2000/svg" aria-hidden="true" style="position:absolute;width:0;height:0;overflow:hidden">
  <defs>
    <symbol id="icon-eur" viewBox="0 0 16 28">
      <path d="m15.25 20.422.547 2.484c.063.25-.078.5-.313.578-.063.016-1.516.516-3.391.516-4.875 0-8.797-2.938-10.109-7.531H.5a.503.503 0 0 1-.5-.5v-1.766c0-.266.219-.5.5-.5h1.031c-.016-.5-.016-1.094.016-1.641H.5a.494.494 0 0 1-.5-.5V9.781c0-.281.219-.5.5-.5h1.531C3.422 4.906 7.422 2 12.094 2c1.625 0 2.969.344 3.031.359a.582.582 0 0 1 .313.234c.063.109.078.25.047.375l-.672 2.484a.468.468 0 0 1-.594.344c-.016 0-1.078-.266-2.188-.266-2.625 0-4.828 1.422-5.875 3.75h7.313c.156 0 .297.063.391.187a.478.478 0 0 1 .109.406l-.375 1.781a.505.505 0 0 1-.5.406H5.469c-.047.5-.031 1.031 0 1.641h7.172c.156 0 .297.078.391.187.094.125.125.281.094.422l-.375 1.75a.5.5 0 0 1-.484.406H6.22c1 2.438 3.25 3.969 5.906 3.969 1.359 0 2.469-.375 2.484-.375a.529.529 0 0 1 .406.031.54.54 0 0 1 .234.328z"/>
    </symbol>
    <symbol id="icon-storage" viewBox="0 0 32 32">
<path d="M15.089 14.103h-8.685v-8.944h3.633l5.052 8.944zM7.766 12.741h4.99l-3.513-6.22h-1.477v6.22z"></path>
<path d="M32 21.922h-9.704c-0.093-0-0.169-0.076-0.169-0.169v-16.026h-1.362v12.824l-9.515-16.131h-7.121v13.206h-0.567c-1.605 0-2.911 1.306-2.911 2.91v4.123c-0.409 0.668-0.651 1.477-0.651 2.343 0 0.002 0 0.003 0 0.005v-0c0 2.521 2.051 4.572 4.572 4.572s4.572-2.051 4.572-4.572v-0l4.49 0c0 2.521 2.051 4.572 4.572 4.572s4.572-2.051 4.572-4.572c0-0.001 0-0.003 0-0.004 0-0.62-0.124-1.211-0.349-1.75l0.011 0.030h9.561v-1.362zM4.572 28.218c-1.77 0-3.21-1.44-3.21-3.21s1.44-3.21 3.21-3.21c1.77 0 3.21 1.44 3.21 3.21s-1.44 3.21-3.21 3.21zM13.841 23.646h-4.904c-0.581-1.858-2.318-3.21-4.365-3.21-0.002 0-0.003 0-0.005 0-0.954 0-1.839 0.294-2.57 0.796l0.015-0.010v-2.684c0-0.854 0.695-1.549 1.549-1.549h1.929v-13.206h4.984l10.29 17.439c-0.716-0.492-1.601-0.785-2.554-0.785-0.002 0-0.004 0-0.006 0h0c-2.047-0-3.784 1.352-4.365 3.21zM18.205 28.218c-1.77 0-3.21-1.44-3.21-3.21s1.44-3.21 3.21-3.21 3.21 1.44 3.21 3.21c0 1.77-1.44 3.21-3.21 3.21z"></path>
<path d="M24.4 20.901h6.254c0.623 0 1.13-0.507 1.13-1.13v-4.436c0-0.623-0.507-1.13-1.13-1.13h-6.254c-0.623 0-1.13 0.507-1.13 1.13v4.436c0 0.623 0.507 1.13 1.13 1.13zM24.632 15.566h5.791v3.973h-5.791v-3.973zM24.4 13.369h6.254c0.623 0 1.13-0.507 1.13-1.13v-4.436c0-0.623-0.507-1.13-1.13-1.13h-6.254c-0.623 0-1.13 0.507-1.13 1.13v4.436c0 0.623 0.507 1.13 1.13 1.13zM24.632 8.035h5.791v3.973h-5.791v-3.973z"></path>
</symbol>
<symbol id="icon-notification" viewBox="0 0 32 32">
<path d="M16 3c-3.472 0-6.737 1.352-9.192 3.808s-3.808 5.72-3.808 9.192c0 3.472 1.352 6.737 3.808 9.192s5.72 3.808 9.192 3.808c3.472 0 6.737-1.352 9.192-3.808s3.808-5.72 3.808-9.192c0-3.472-1.352-6.737-3.808-9.192s-5.72-3.808-9.192-3.808zM16 0v0c8.837 0 16 7.163 16 16s-7.163 16-16 16c-8.837 0-16-7.163-16-16s7.163-16 16-16zM14 22h4v4h-4zM14 6h4v12h-4z"></path>
</symbol>
  </defs>
</svg>
